M48
; DRILL file {KiCad (6.0.11)} date Mon Aug 21 22:45:38 2023
; FORMAT={-:-/ absolute / metric / decimal}
; #@! TF.CreationDate,2023-08-21T22:45:38+09:00
; #@! TF.GenerationSoftware,Kicad,Pcbnew,(6.0.11)
; #@! TF.FileFunction,Plated,1,2,PTH
FMAT,2
METRIC
; #@! TA.AperFunction,Plated,PTH,ViaDrill
T1C0.300
; #@! TA.AperFunction,Plated,PTH,ViaDrill
T2C0.500
; #@! TA.AperFunction,Plated,PTH,ComponentDrill
T3C0.700
; #@! TA.AperFunction,Plated,PTH,ComponentDrill
T4C0.800
; #@! TA.AperFunction,Plated,PTH,ComponentDrill
T5C0.900
; #@! TA.AperFunction,Plated,PTH,ComponentDrill
T6C1.000
; #@! TA.AperFunction,Plated,PTH,ComponentDrill
T7C1.090
; #@! TA.AperFunction,Plated,PTH,ComponentDrill
T8C1.100
%
G90
G05
T1
X71.463Y-68.709
X71.463Y-70.752
X72.606Y-83.325
X75.528Y-93.084
X81.623Y-74.978
X88.354Y-112.154
X89.751Y-66.18
X98.26Y-84.722
X105.118Y-92.469
X107.15Y-93.314
X108.42Y-73.292
X109.436Y-62.243
X112.738Y-101.359
X113.754Y-113.805
X114.516Y-93.104
X115.352Y-75.118
X118.513Y-101.572
X127.851Y-118.377
X128.041Y-95.326
X128.232Y-68.085
X128.232Y-69.736
X128.423Y-101.296
X129.711Y-114.268
X133.439Y-116.98
X138.646Y-67.069
X139.027Y-115.329
X139.027Y-117.742
T2
X124.549Y-99.708
X126.454Y-62.243
T3
X54.445Y-127.013
X59.652Y-58.941
X62.065Y-127.013
X67.272Y-58.941
X82.385Y-116.98
X82.385Y-124.6
X105.372Y-68.085
X105.372Y-75.705
X136.106Y-120.409
X136.106Y-128.029
T4
X55.842Y-102.268
X55.842Y-104.768
X56.223Y-82.817
X56.223Y-85.357
X56.223Y-87.897
X56.223Y-90.437
X56.223Y-92.977
X56.223Y-95.517
X60.922Y-101.994
X60.922Y-109.614
X63.081Y-63.005
X63.081Y-65.545
X63.081Y-68.085
X63.081Y-70.625
X63.081Y-73.165
X63.081Y-75.705
X63.081Y-78.245
X63.081Y-80.785
X63.081Y-83.325
X63.081Y-85.865
X63.081Y-88.405
X63.081Y-90.945
X63.081Y-93.485
X63.081Y-96.025
X65.748Y-124.346
X65.748Y-126.846
X65.875Y-117.0
X65.875Y-119.5
X68.542Y-101.994
X68.542Y-109.614
X69.558Y-56.782
X70.965Y-117.615
X70.965Y-120.155
X70.965Y-122.695
X70.965Y-125.235
X72.058Y-56.782
X75.654Y-140.765
X75.654Y-143.265
X78.321Y-63.005
X78.321Y-65.545
X78.321Y-68.085
X78.321Y-70.625
X78.321Y-73.165
X78.321Y-75.705
X78.321Y-78.245
X78.321Y-80.785
X78.321Y-83.325
X78.321Y-85.865
X78.321Y-88.405
X78.321Y-90.945
X78.321Y-93.485
X78.321Y-96.025
X78.585Y-117.615
X78.585Y-120.155
X78.585Y-122.695
X78.585Y-125.235
X82.639Y-139.838
X82.639Y-143.338
X85.56Y-63.005
X85.56Y-65.545
X85.56Y-68.085
X85.56Y-70.625
X85.56Y-73.165
X85.56Y-75.705
X85.56Y-78.245
X85.56Y-80.785
X85.56Y-83.325
X85.56Y-85.865
X85.56Y-88.405
X85.56Y-90.945
X85.56Y-93.485
X85.56Y-96.025
X85.56Y-98.565
X85.56Y-101.105
X85.56Y-103.645
X85.56Y-106.185
X85.56Y-108.725
X85.56Y-111.265
X90.787Y-56.655
X93.287Y-56.655
X100.8Y-63.005
X100.8Y-65.545
X100.8Y-68.085
X100.8Y-70.625
X100.8Y-73.165
X100.8Y-75.705
X100.8Y-78.245
X100.8Y-80.785
X100.8Y-83.325
X100.8Y-85.865
X100.8Y-88.405
X100.8Y-90.945
X100.8Y-93.485
X100.8Y-96.025
X100.8Y-98.565
X100.8Y-101.105
X100.8Y-103.645
X100.8Y-106.185
X100.8Y-108.725
X100.8Y-111.265
X117.302Y-107.375
X117.302Y-109.915
X117.302Y-112.455
X117.302Y-114.995
X117.302Y-117.535
X117.302Y-120.075
X117.302Y-122.615
X117.302Y-125.155
X117.302Y-127.695
X117.302Y-130.235
X117.305Y-63.005
X117.305Y-65.545
X117.305Y-68.085
X117.305Y-70.625
X117.305Y-73.165
X117.305Y-75.705
X117.305Y-78.245
X117.305Y-80.785
X117.305Y-83.325
X117.305Y-85.865
X117.305Y-88.405
X117.305Y-90.945
X117.305Y-93.485
X117.305Y-96.025
X124.061Y-56.782
X124.295Y-102.629
X124.922Y-107.375
X124.922Y-109.915
X124.922Y-112.455
X124.922Y-114.995
X124.922Y-117.535
X124.922Y-120.075
X124.922Y-122.615
X124.922Y-125.155
X124.922Y-127.695
X124.922Y-130.235
X126.561Y-56.782
X126.795Y-102.629
X132.545Y-63.005
X132.545Y-65.545
X132.545Y-68.085
X132.545Y-70.625
X132.545Y-73.165
X132.545Y-75.705
X132.545Y-78.245
X132.545Y-80.785
X132.545Y-83.325
X132.545Y-85.865
X132.545Y-88.405
X132.545Y-90.945
X132.545Y-93.485
X132.545Y-96.025
X133.967Y-56.655
X136.467Y-56.655
X136.605Y-62.955
X136.605Y-65.495
X136.605Y-68.035
X136.605Y-70.575
X136.605Y-73.115
X136.605Y-75.655
X136.605Y-78.195
X136.605Y-80.735
X136.605Y-83.275
X136.605Y-85.815
X136.605Y-88.355
X136.605Y-90.895
X136.605Y-93.435
X136.605Y-95.975
X144.225Y-62.955
X144.225Y-65.495
X144.225Y-68.035
X144.225Y-70.575
X144.225Y-73.115
X144.225Y-75.655
X144.225Y-78.195
X144.225Y-80.735
X144.225Y-83.275
X144.225Y-85.815
X144.225Y-88.355
X144.225Y-90.895
X144.225Y-93.435
X144.225Y-95.975
T5
X74.135Y-133.49
X76.675Y-133.49
X140.805Y-120.155
X140.805Y-122.695
T6
X134.836Y-145.174
X143.98Y-104.915
X143.98Y-110.63
T7
X56.465Y-64.275
X56.465Y-66.815
X56.465Y-69.355
X56.465Y-71.895
X56.465Y-74.435
X56.465Y-76.975
T8
X54.37Y-117.27
X54.37Y-121.77
X60.87Y-117.27
X60.87Y-121.77
T6
X63.585Y-133.759G85X63.585Y-135.759
G05
X65.585Y-139.459G85X67.585Y-139.459
G05
X69.785Y-133.509G85X69.785Y-136.009
G05
T0
M30
