%TF.GenerationSoftware,KiCad,Pcbnew,(6.0.11)*%
%TF.CreationDate,2023-08-21T22:45:39+09:00*%
%TF.ProjectId,Sys19-6,53797331-392d-4362-9e6b-696361645f70,rev?*%
%TF.SameCoordinates,Original*%
%TF.FileFunction,Drillmap*%
%TF.FilePolarity,Positive*%
%FSLAX45Y45*%
G04 Gerber Fmt 4.5, Leading zero omitted, Abs format (unit mm)*
G04 Created by KiCad (PCBNEW (6.0.11)) date 2023-08-21 22:45:39*
%MOMM*%
%LPD*%
G01*
G04 APERTURE LIST*
%ADD10C,0.100000*%
%ADD11C,0.200000*%
%ADD12C,0.320000*%
G04 APERTURE END LIST*
D10*
X4976750Y-14981700D02*
X14976750Y-14981700D01*
X14976750Y-14981700D02*
X14976750Y-4981700D01*
X14976750Y-4981700D02*
X4976750Y-4981700D01*
X4976750Y-4981700D02*
X4976750Y-14981700D01*
D11*
D12*
X5340000Y-5340000D02*
X5660000Y-5660000D01*
X5660000Y-5340000D02*
X5340000Y-5660000D01*
X5340000Y-14340000D02*
X5660000Y-14660000D01*
X5660000Y-14340000D02*
X5340000Y-14660000D01*
X14340000Y-5340000D02*
X14660000Y-5660000D01*
X14660000Y-5340000D02*
X14340000Y-5660000D01*
X14340000Y-14340000D02*
X14660000Y-14660000D01*
X14660000Y-14340000D02*
X14340000Y-14660000D01*
D11*
X5229369Y-15297176D02*
X5229369Y-15097176D01*
X5276988Y-15097176D01*
X5305560Y-15106700D01*
X5324607Y-15125748D01*
X5334131Y-15144795D01*
X5343655Y-15182890D01*
X5343655Y-15211462D01*
X5334131Y-15249557D01*
X5324607Y-15268605D01*
X5305560Y-15287652D01*
X5276988Y-15297176D01*
X5229369Y-15297176D01*
X5429369Y-15297176D02*
X5429369Y-15163843D01*
X5429369Y-15201938D02*
X5438893Y-15182890D01*
X5448417Y-15173367D01*
X5467464Y-15163843D01*
X5486512Y-15163843D01*
X5553179Y-15297176D02*
X5553179Y-15163843D01*
X5553179Y-15097176D02*
X5543655Y-15106700D01*
X5553179Y-15116224D01*
X5562702Y-15106700D01*
X5553179Y-15097176D01*
X5553179Y-15116224D01*
X5676988Y-15297176D02*
X5657940Y-15287652D01*
X5648417Y-15268605D01*
X5648417Y-15097176D01*
X5781750Y-15297176D02*
X5762702Y-15287652D01*
X5753178Y-15268605D01*
X5753178Y-15097176D01*
X6010321Y-15297176D02*
X6010321Y-15097176D01*
X6076988Y-15240033D01*
X6143655Y-15097176D01*
X6143655Y-15297176D01*
X6324607Y-15297176D02*
X6324607Y-15192414D01*
X6315083Y-15173367D01*
X6296036Y-15163843D01*
X6257940Y-15163843D01*
X6238893Y-15173367D01*
X6324607Y-15287652D02*
X6305559Y-15297176D01*
X6257940Y-15297176D01*
X6238893Y-15287652D01*
X6229369Y-15268605D01*
X6229369Y-15249557D01*
X6238893Y-15230509D01*
X6257940Y-15220986D01*
X6305559Y-15220986D01*
X6324607Y-15211462D01*
X6419845Y-15163843D02*
X6419845Y-15363843D01*
X6419845Y-15173367D02*
X6438893Y-15163843D01*
X6476988Y-15163843D01*
X6496036Y-15173367D01*
X6505559Y-15182890D01*
X6515083Y-15201938D01*
X6515083Y-15259081D01*
X6505559Y-15278128D01*
X6496036Y-15287652D01*
X6476988Y-15297176D01*
X6438893Y-15297176D01*
X6419845Y-15287652D01*
X6600798Y-15278128D02*
X6610321Y-15287652D01*
X6600798Y-15297176D01*
X6591274Y-15287652D01*
X6600798Y-15278128D01*
X6600798Y-15297176D01*
X6600798Y-15173367D02*
X6610321Y-15182890D01*
X6600798Y-15192414D01*
X6591274Y-15182890D01*
X6600798Y-15173367D01*
X6600798Y-15192414D01*
X4771750Y-15526700D02*
X4971750Y-15726700D01*
X4971750Y-15526700D02*
X4771750Y-15726700D01*
X5210321Y-15517176D02*
X5334131Y-15517176D01*
X5267464Y-15593367D01*
X5296036Y-15593367D01*
X5315083Y-15602890D01*
X5324607Y-15612414D01*
X5334131Y-15631462D01*
X5334131Y-15679081D01*
X5324607Y-15698128D01*
X5315083Y-15707652D01*
X5296036Y-15717176D01*
X5238893Y-15717176D01*
X5219845Y-15707652D01*
X5210321Y-15698128D01*
X5419845Y-15698128D02*
X5429369Y-15707652D01*
X5419845Y-15717176D01*
X5410321Y-15707652D01*
X5419845Y-15698128D01*
X5419845Y-15717176D01*
X5505560Y-15536224D02*
X5515083Y-15526700D01*
X5534131Y-15517176D01*
X5581750Y-15517176D01*
X5600798Y-15526700D01*
X5610321Y-15536224D01*
X5619845Y-15555271D01*
X5619845Y-15574319D01*
X5610321Y-15602890D01*
X5496036Y-15717176D01*
X5619845Y-15717176D01*
X5743655Y-15517176D02*
X5762702Y-15517176D01*
X5781750Y-15526700D01*
X5791274Y-15536224D01*
X5800798Y-15555271D01*
X5810321Y-15593367D01*
X5810321Y-15640986D01*
X5800798Y-15679081D01*
X5791274Y-15698128D01*
X5781750Y-15707652D01*
X5762702Y-15717176D01*
X5743655Y-15717176D01*
X5724607Y-15707652D01*
X5715083Y-15698128D01*
X5705559Y-15679081D01*
X5696036Y-15640986D01*
X5696036Y-15593367D01*
X5705559Y-15555271D01*
X5715083Y-15536224D01*
X5724607Y-15526700D01*
X5743655Y-15517176D01*
X5934131Y-15517176D02*
X5953178Y-15517176D01*
X5972226Y-15526700D01*
X5981750Y-15536224D01*
X5991274Y-15555271D01*
X6000798Y-15593367D01*
X6000798Y-15640986D01*
X5991274Y-15679081D01*
X5981750Y-15698128D01*
X5972226Y-15707652D01*
X5953178Y-15717176D01*
X5934131Y-15717176D01*
X5915083Y-15707652D01*
X5905559Y-15698128D01*
X5896036Y-15679081D01*
X5886512Y-15640986D01*
X5886512Y-15593367D01*
X5896036Y-15555271D01*
X5905559Y-15536224D01*
X5915083Y-15526700D01*
X5934131Y-15517176D01*
X6086512Y-15717176D02*
X6086512Y-15583843D01*
X6086512Y-15602890D02*
X6096036Y-15593367D01*
X6115083Y-15583843D01*
X6143655Y-15583843D01*
X6162702Y-15593367D01*
X6172226Y-15612414D01*
X6172226Y-15717176D01*
X6172226Y-15612414D02*
X6181750Y-15593367D01*
X6200798Y-15583843D01*
X6229369Y-15583843D01*
X6248417Y-15593367D01*
X6257940Y-15612414D01*
X6257940Y-15717176D01*
X6353178Y-15717176D02*
X6353178Y-15583843D01*
X6353178Y-15602890D02*
X6362702Y-15593367D01*
X6381750Y-15583843D01*
X6410321Y-15583843D01*
X6429369Y-15593367D01*
X6438893Y-15612414D01*
X6438893Y-15717176D01*
X6438893Y-15612414D02*
X6448417Y-15593367D01*
X6467464Y-15583843D01*
X6496036Y-15583843D01*
X6515083Y-15593367D01*
X6524607Y-15612414D01*
X6524607Y-15717176D01*
X6915083Y-15507652D02*
X6743655Y-15764795D01*
X7172226Y-15517176D02*
X7191274Y-15517176D01*
X7210321Y-15526700D01*
X7219845Y-15536224D01*
X7229369Y-15555271D01*
X7238893Y-15593367D01*
X7238893Y-15640986D01*
X7229369Y-15679081D01*
X7219845Y-15698128D01*
X7210321Y-15707652D01*
X7191274Y-15717176D01*
X7172226Y-15717176D01*
X7153178Y-15707652D01*
X7143655Y-15698128D01*
X7134131Y-15679081D01*
X7124607Y-15640986D01*
X7124607Y-15593367D01*
X7134131Y-15555271D01*
X7143655Y-15536224D01*
X7153178Y-15526700D01*
X7172226Y-15517176D01*
X7324607Y-15698128D02*
X7334131Y-15707652D01*
X7324607Y-15717176D01*
X7315083Y-15707652D01*
X7324607Y-15698128D01*
X7324607Y-15717176D01*
X7524607Y-15717176D02*
X7410321Y-15717176D01*
X7467464Y-15717176D02*
X7467464Y-15517176D01*
X7448417Y-15545748D01*
X7429369Y-15564795D01*
X7410321Y-15574319D01*
X7600798Y-15536224D02*
X7610321Y-15526700D01*
X7629369Y-15517176D01*
X7676988Y-15517176D01*
X7696036Y-15526700D01*
X7705559Y-15536224D01*
X7715083Y-15555271D01*
X7715083Y-15574319D01*
X7705559Y-15602890D01*
X7591274Y-15717176D01*
X7715083Y-15717176D01*
X7886512Y-15517176D02*
X7848417Y-15517176D01*
X7829369Y-15526700D01*
X7819845Y-15536224D01*
X7800798Y-15564795D01*
X7791274Y-15602890D01*
X7791274Y-15679081D01*
X7800798Y-15698128D01*
X7810321Y-15707652D01*
X7829369Y-15717176D01*
X7867464Y-15717176D01*
X7886512Y-15707652D01*
X7896036Y-15698128D01*
X7905559Y-15679081D01*
X7905559Y-15631462D01*
X7896036Y-15612414D01*
X7886512Y-15602890D01*
X7867464Y-15593367D01*
X7829369Y-15593367D01*
X7810321Y-15602890D01*
X7800798Y-15612414D01*
X7791274Y-15631462D01*
X8029369Y-15517176D02*
X8048417Y-15517176D01*
X8067464Y-15526700D01*
X8076988Y-15536224D01*
X8086512Y-15555271D01*
X8096036Y-15593367D01*
X8096036Y-15640986D01*
X8086512Y-15679081D01*
X8076988Y-15698128D01*
X8067464Y-15707652D01*
X8048417Y-15717176D01*
X8029369Y-15717176D01*
X8010321Y-15707652D01*
X8000798Y-15698128D01*
X7991274Y-15679081D01*
X7981750Y-15640986D01*
X7981750Y-15593367D01*
X7991274Y-15555271D01*
X8000798Y-15536224D01*
X8010321Y-15526700D01*
X8029369Y-15517176D01*
X8172226Y-15517176D02*
X8172226Y-15555271D01*
X8248417Y-15517176D02*
X8248417Y-15555271D01*
X8543655Y-15793367D02*
X8534131Y-15783843D01*
X8515083Y-15755271D01*
X8505560Y-15736224D01*
X8496036Y-15707652D01*
X8486512Y-15660033D01*
X8486512Y-15621938D01*
X8496036Y-15574319D01*
X8505560Y-15545748D01*
X8515083Y-15526700D01*
X8534131Y-15498128D01*
X8543655Y-15488605D01*
X8705560Y-15583843D02*
X8705560Y-15717176D01*
X8657940Y-15507652D02*
X8610321Y-15650509D01*
X8734131Y-15650509D01*
X8962702Y-15717176D02*
X8962702Y-15517176D01*
X9048417Y-15717176D02*
X9048417Y-15612414D01*
X9038893Y-15593367D01*
X9019845Y-15583843D01*
X8991274Y-15583843D01*
X8972226Y-15593367D01*
X8962702Y-15602890D01*
X9172226Y-15717176D02*
X9153179Y-15707652D01*
X9143655Y-15698128D01*
X9134131Y-15679081D01*
X9134131Y-15621938D01*
X9143655Y-15602890D01*
X9153179Y-15593367D01*
X9172226Y-15583843D01*
X9200798Y-15583843D01*
X9219845Y-15593367D01*
X9229369Y-15602890D01*
X9238893Y-15621938D01*
X9238893Y-15679081D01*
X9229369Y-15698128D01*
X9219845Y-15707652D01*
X9200798Y-15717176D01*
X9172226Y-15717176D01*
X9353179Y-15717176D02*
X9334131Y-15707652D01*
X9324607Y-15688605D01*
X9324607Y-15517176D01*
X9505560Y-15707652D02*
X9486512Y-15717176D01*
X9448417Y-15717176D01*
X9429369Y-15707652D01*
X9419845Y-15688605D01*
X9419845Y-15612414D01*
X9429369Y-15593367D01*
X9448417Y-15583843D01*
X9486512Y-15583843D01*
X9505560Y-15593367D01*
X9515083Y-15612414D01*
X9515083Y-15631462D01*
X9419845Y-15650509D01*
X9591274Y-15707652D02*
X9610321Y-15717176D01*
X9648417Y-15717176D01*
X9667464Y-15707652D01*
X9676988Y-15688605D01*
X9676988Y-15679081D01*
X9667464Y-15660033D01*
X9648417Y-15650509D01*
X9619845Y-15650509D01*
X9600798Y-15640986D01*
X9591274Y-15621938D01*
X9591274Y-15612414D01*
X9600798Y-15593367D01*
X9619845Y-15583843D01*
X9648417Y-15583843D01*
X9667464Y-15593367D01*
X9743655Y-15793367D02*
X9753179Y-15783843D01*
X9772226Y-15755271D01*
X9781750Y-15736224D01*
X9791274Y-15707652D01*
X9800798Y-15660033D01*
X9800798Y-15621938D01*
X9791274Y-15574319D01*
X9781750Y-15545748D01*
X9772226Y-15526700D01*
X9753179Y-15498128D01*
X9743655Y-15488605D01*
X10105560Y-15793367D02*
X10096036Y-15783843D01*
X10076988Y-15755271D01*
X10067464Y-15736224D01*
X10057940Y-15707652D01*
X10048417Y-15660033D01*
X10048417Y-15621938D01*
X10057940Y-15574319D01*
X10067464Y-15545748D01*
X10076988Y-15526700D01*
X10096036Y-15498128D01*
X10105560Y-15488605D01*
X10181750Y-15583843D02*
X10181750Y-15717176D01*
X10181750Y-15602890D02*
X10191274Y-15593367D01*
X10210321Y-15583843D01*
X10238893Y-15583843D01*
X10257940Y-15593367D01*
X10267464Y-15612414D01*
X10267464Y-15717176D01*
X10391274Y-15717176D02*
X10372226Y-15707652D01*
X10362702Y-15698128D01*
X10353179Y-15679081D01*
X10353179Y-15621938D01*
X10362702Y-15602890D01*
X10372226Y-15593367D01*
X10391274Y-15583843D01*
X10419845Y-15583843D01*
X10438893Y-15593367D01*
X10448417Y-15602890D01*
X10457940Y-15621938D01*
X10457940Y-15679081D01*
X10448417Y-15698128D01*
X10438893Y-15707652D01*
X10419845Y-15717176D01*
X10391274Y-15717176D01*
X10515083Y-15583843D02*
X10591274Y-15583843D01*
X10543655Y-15517176D02*
X10543655Y-15688605D01*
X10553179Y-15707652D01*
X10572226Y-15717176D01*
X10591274Y-15717176D01*
X10810321Y-15583843D02*
X10810321Y-15783843D01*
X10810321Y-15593367D02*
X10829369Y-15583843D01*
X10867464Y-15583843D01*
X10886512Y-15593367D01*
X10896036Y-15602890D01*
X10905560Y-15621938D01*
X10905560Y-15679081D01*
X10896036Y-15698128D01*
X10886512Y-15707652D01*
X10867464Y-15717176D01*
X10829369Y-15717176D01*
X10810321Y-15707652D01*
X11019845Y-15717176D02*
X11000798Y-15707652D01*
X10991274Y-15688605D01*
X10991274Y-15517176D01*
X11181750Y-15717176D02*
X11181750Y-15612414D01*
X11172226Y-15593367D01*
X11153179Y-15583843D01*
X11115083Y-15583843D01*
X11096036Y-15593367D01*
X11181750Y-15707652D02*
X11162702Y-15717176D01*
X11115083Y-15717176D01*
X11096036Y-15707652D01*
X11086512Y-15688605D01*
X11086512Y-15669557D01*
X11096036Y-15650509D01*
X11115083Y-15640986D01*
X11162702Y-15640986D01*
X11181750Y-15631462D01*
X11248417Y-15583843D02*
X11324607Y-15583843D01*
X11276988Y-15517176D02*
X11276988Y-15688605D01*
X11286512Y-15707652D01*
X11305559Y-15717176D01*
X11324607Y-15717176D01*
X11467464Y-15707652D02*
X11448417Y-15717176D01*
X11410321Y-15717176D01*
X11391274Y-15707652D01*
X11381750Y-15688605D01*
X11381750Y-15612414D01*
X11391274Y-15593367D01*
X11410321Y-15583843D01*
X11448417Y-15583843D01*
X11467464Y-15593367D01*
X11476988Y-15612414D01*
X11476988Y-15631462D01*
X11381750Y-15650509D01*
X11648417Y-15717176D02*
X11648417Y-15517176D01*
X11648417Y-15707652D02*
X11629369Y-15717176D01*
X11591274Y-15717176D01*
X11572226Y-15707652D01*
X11562702Y-15698128D01*
X11553178Y-15679081D01*
X11553178Y-15621938D01*
X11562702Y-15602890D01*
X11572226Y-15593367D01*
X11591274Y-15583843D01*
X11629369Y-15583843D01*
X11648417Y-15593367D01*
X11724607Y-15793367D02*
X11734131Y-15783843D01*
X11753178Y-15755271D01*
X11762702Y-15736224D01*
X11772226Y-15707652D01*
X11781750Y-15660033D01*
X11781750Y-15621938D01*
X11772226Y-15574319D01*
X11762702Y-15545748D01*
X11753178Y-15526700D01*
X11734131Y-15498128D01*
X11724607Y-15488605D01*
M02*
